<svg id="barcode" width="222px" height="142px" x="0px" y="0px" viewBox="0 0 222 142" xmlns="http://www.w3.org/2000/svg" version="1.1" style="transform: translate(0px, 0px);"><rect x="0" y="0" width="222" height="142" style="fill:#ffffff;"/><g transform="translate(10, 10)" style="fill:#000000;"><rect x="0" y="0" width="2" height="100"/><rect x="4" y="0" width="4" height="100"/><rect x="12" y="0" width="2" height="100"/><rect x="18" y="0" width="2" height="100"/><rect x="22" y="0" width="4" height="100"/><rect x="30" y="0" width="2" height="100"/><rect x="34" y="0" width="2" height="100"/><rect x="38" y="0" width="2" height="100"/><rect x="42" y="0" width="2" height="100"/><rect x="48" y="0" width="2" height="100"/><rect x="52" y="0" width="2" height="100"/><rect x="56" y="0" width="4" height="100"/><rect x="62" y="0" width="2" height="100"/><rect x="66" y="0" width="2" height="100"/><rect x="70" y="0" width="2" height="100"/><rect x="76" y="0" width="4" height="100"/><rect x="82" y="0" width="4" height="100"/><rect x="88" y="0" width="2" height="100"/><rect x="92" y="0" width="2" height="100"/><rect x="98" y="0" width="2" height="100"/><rect x="102" y="0" width="2" height="100"/><rect x="106" y="0" width="2" height="100"/><rect x="110" y="0" width="4" height="100"/><rect x="118" y="0" width="2" height="100"/><rect x="122" y="0" width="4" height="100"/><rect x="128" y="0" width="2" height="100"/><rect x="132" y="0" width="2" height="100"/><rect x="138" y="0" width="2" height="100"/><rect x="142" y="0" width="4" height="100"/><rect x="148" y="0" width="2" height="100"/><rect x="154" y="0" width="2" height="100"/><rect x="158" y="0" width="2" height="100"/><rect x="162" y="0" width="4" height="100"/><rect x="168" y="0" width="2" height="100"/><rect x="172" y="0" width="2" height="100"/><rect x="178" y="0" width="2" height="100"/><rect x="182" y="0" width="2" height="100"/><rect x="186" y="0" width="4" height="100"/><rect x="194" y="0" width="2" height="100"/><rect x="200" y="0" width="2" height="100"/><text style="font: 20px monospace" text-anchor="middle" x="101" y="122">36051595</text></g></svg>