<?xml version="1.0" encoding="iso-8859-1"?>
<!-- Generator: Adobe Illustrator 26.5.0, SVG Export Plug-In . SVG Version: 6.00 Build 0)  -->
<svg version="1.1" baseProfile="basic" id="&#x421;&#x43B;&#x43E;&#x439;_1"
	 xmlns="http://www.w3.org/2000/svg" xmlns:xlink="http://www.w3.org/1999/xlink" x="0px" y="0px" viewBox="0 0 64 64"
	 xml:space="preserve">
<ellipse style="opacity:0.3;" cx="32" cy="61" rx="21" ry="3"/>
<path style="fill:#98C900;" d="M57.817,22.812l-6.465,28.629C51.146,52.352,50.336,53,49.401,53h-9.44
	c-0.608,0-1.182-0.276-1.562-0.751L35,48h-3.764c-0.758,0-1.45-0.428-1.789-1.106L29,46l-1.586,5.549
	C27.169,52.408,26.384,53,25.491,53h-8.663c-0.53,0-1.039-0.211-1.414-0.586l-8.586-8.586c-0.512-0.512-0.707-1.259-0.511-1.956
	l8.273-29.414C14.832,11.596,15.619,11,16.515,11h10.456c0.646,0,1.252,0.312,1.627,0.838L33,18l0.447-0.894
	C33.786,16.428,34.479,16,35.236,16H38l0.678-3.392C38.865,11.673,39.686,11,40.64,11h9.263c0.684,0,1.32,0.349,1.687,0.926
	l5.964,9.371C57.839,21.747,57.934,22.292,57.817,22.812z"/>
<path style="fill:#548500;" d="M57.817,22.812c0.117-0.52,0.022-1.065-0.263-1.514l-5.964-9.372c-0.169-0.266-0.4-0.477-0.662-0.634
	L43,43l7.65,9.562c0.345-0.276,0.599-0.666,0.702-1.122L57.817,22.812z"/>
<g>
	<path style="fill:#548500;" d="M28.598,11.838c-0.225-0.315-0.538-0.541-0.887-0.681L27,14H14.156l-1.125,4H29l-1.451,5.077
		C27.274,24.041,27.998,25,29,25h0h23v-4h-8.252l2.403-10h-3.805l-2.403,10h-7.8L33,18L28.598,11.838z"/>
	<path style="fill:#548500;" d="M17.058,26.982l-6.547-0.022L9.375,31l3.726,0.034l-0.57,2.054C12.264,34.049,12.987,35,13.984,35
		H21l0.52-4H18l0.519-2.156C18.747,27.897,18.032,26.986,17.058,26.982z"/>
</g>
<path style="fill:#FFA500;" d="M25.503,52.99l-9.356-0.063L7.349,44.32C6.856,43.837,7.198,43,7.887,43H18l3.438-12h4L23,38h7l2-7h4
	l-3,12h10l7.029,8.786C50.42,52.276,50.072,53,49.446,53L39,52l-3.829-4.146h-3.265c-1.121,0-2.158-0.591-2.729-1.556L29,46
	l-1.589,5.56C27.168,52.411,26.388,52.996,25.503,52.99z"/>
<path style="fill:#BD6300;" d="M43,43H33l-3-5h-7c0,0,4.587,6.772,6.396,8.989C29.875,47.576,30.479,48,31.236,48H35l3.4,4.249
	C38.779,52.724,39.354,53,39.961,53h9.44c0.467,0,0.904-0.162,1.249-0.438L43,43z"/>
<path style="fill:#BD6300;" d="M18,43H6.34c0.094,0.306,0.253,0.594,0.488,0.828l8.586,8.586C15.789,52.789,16.298,53,16.828,53
	h8.663c0.431,0,0.833-0.143,1.165-0.382L18,43z"/>
<g>
	<path style="opacity:0.3;fill:#FFFFFF;" d="M27.758,11.174C27.511,11.068,27.247,11,26.971,11H16.515
		c-0.896,0-1.683,0.596-1.925,1.459L9.371,30.994c0.501,0.019,0.966,0.018,1.413,0.018c2.184,0,4.19-1.442,4.811-3.648l2.987-10.635
		C18.704,16.298,19.097,16,19.545,16h3.23C25.477,16,27.664,13.853,27.758,11.174z"/>
	<path style="opacity:0.15;" d="M51.352,51.441l5.203-23.042c0,0,0,0,0,0c-2.692-0.604-5.37,1.082-5.979,3.776L47.179,47.22
		C47.076,47.676,46.671,48,46.204,48h-0.844c-2.761,0-5,2.239-5,5h9.042C50.336,53,51.146,52.352,51.352,51.441z"/>
</g>
<line style="fill:none;stroke:#FFFFFF;stroke-width:3;stroke-linecap:round;stroke-linejoin:round;stroke-miterlimit:10;" x1="17.651" y1="14.5" x2="21.242" y2="14.5"/>
</svg>